# Blender 4.5.2 LTS
# www.blender.org
mtllib PetatesTianguis.mtl
g Plano.004_Plano.004
v -13.681577 0.000000 2.821620
v -10.531076 0.000000 2.799485
v -13.695639 0.000000 0.820037
v -10.545138 0.000000 0.797903
v -13.679186 0.004124 2.816266
v -10.528686 0.004124 2.794132
v -10.531076 0.000000 2.799485
v -10.528686 0.004124 2.794132
v -13.695639 0.000000 0.820037
v -10.545138 0.000000 0.797903
v -13.033924 0.000000 6.957823
v -13.005732 0.000000 9.279848
v -11.032440 0.000000 6.933522
v -11.004247 0.000000 9.255547
v -10.333176 0.000000 6.985062
v -10.294376 0.000000 10.180712
v -7.441143 0.000000 6.949949
v -7.402343 0.000000 10.145597
v -10.325436 0.004124 6.987431
v -10.286635 0.004124 10.183081
v -10.294376 0.000000 10.180712
v -10.286635 0.004124 10.183081
v -7.441143 0.000000 6.949949
v -7.402343 0.000000 10.145597
v -6.810385 0.000000 6.942289
v -6.771586 0.000000 10.137938
v -4.808901 0.000000 6.917988
v -4.770102 0.000000 10.113638
v -6.805020 0.004124 6.944687
v -6.766220 0.004124 10.140336
v -6.771586 0.000000 10.137938
v -6.766220 0.004124 10.140336
v -4.808901 0.000000 6.917988
v -4.770102 0.000000 10.113638
v -9.970390 0.000000 0.185680
v -9.931590 0.000000 3.381329
v -7.968905 0.000000 0.161379
v -7.930106 0.000000 3.357028
v -9.965024 0.004124 0.188078
v -9.926225 0.004124 3.383727
v -9.931590 0.000000 3.381329
v -9.926225 0.004124 3.383727
v -7.968905 0.000000 0.161379
v -7.930106 0.000000 3.357028
v -4.205785 0.000000 0.676111
v -7.399678 0.000000 0.788923
v -4.135129 0.000000 2.676496
v -7.329022 0.000000 2.789308
v -4.208058 0.004124 0.681531
v -7.401951 0.004124 0.794343
v -7.399678 0.000000 0.788923
v -7.401951 0.004124 0.794343
v -4.135129 0.000000 2.676496
v -7.329022 0.000000 2.789308
v -174.361755 9.099189 -22.300108
v -182.390213 9.099189 -22.078135
v -174.262817 9.099189 -18.721149
v -182.291260 9.099189 -18.499176
v -174.367691 9.091812 -22.290394
v -182.396133 9.091812 -22.068422
v -182.390213 9.099189 -22.078135
v -182.396133 9.091812 -22.068422
v -174.262817 9.099189 -18.721149
v -182.291260 9.099189 -18.499176
v -174.290146 9.099189 -16.401594
v -182.318604 9.099189 -16.179619
v -174.191193 9.099189 -12.822635
v -182.219650 9.099189 -12.600662
v -174.296066 9.091812 -16.391880
v -182.324539 9.091812 -16.169907
v -182.318604 9.099189 -16.179619
v -182.324539 9.091812 -16.169907
v -174.191193 9.099189 -12.822635
v -182.219650 9.099189 -12.600662
vn -0.0000 1.0000 -0.0000
vn -0.0043 -0.7913 -0.6115
vn 0.4716 -0.8818 -0.0057
vn 0.6114 -0.7913 -0.0074
vn 0.0216 -0.7913 0.6111
vn -0.0169 -0.7912 -0.6113
vn -0.0169 -0.7913 -0.6112
vt 0.000000 0.000000
vt 1.000000 0.000000
vt 1.000000 1.000000
vt 0.000000 1.000000
s 0
g Plano.004_Material.005
usemtl Material.005
f 1/1/1 2/2/1 4/3/1 3/4/1
f 2/2/2 1/1/2 5/1/2 6/2/2
f 2/2/1 6/2/1 8/2/1 7/2/1
f 3/4/1 4/3/1 10/3/1 9/4/1
f 11/1/1 12/2/1 14/3/1 13/4/1
f 15/1/1 16/2/1 18/3/1 17/4/1
f 16/2/3 15/1/3 19/1/3 20/2/3
f 16/2/1 20/2/1 22/2/1 21/2/1
f 17/4/1 18/3/1 24/3/1 23/4/1
f 25/1/1 26/2/1 28/3/1 27/4/1
f 26/2/4 25/1/4 29/1/4 30/2/4
f 26/2/1 30/2/1 32/2/1 31/2/1
f 27/4/1 28/3/1 34/3/1 33/4/1
f 35/1/1 36/2/1 38/3/1 37/4/1
f 36/2/4 35/1/4 39/1/4 40/2/4
f 36/2/1 40/2/1 42/2/1 41/2/1
f 37/4/1 38/3/1 44/3/1 43/4/1
f 45/1/1 46/2/1 48/3/1 47/4/1
f 46/2/5 45/1/5 49/1/5 50/2/5
f 46/2/1 50/2/1 52/2/1 51/2/1
f 47/4/1 48/3/1 54/3/1 53/4/1
f 56/2/6 55/1/6 59/1/6 60/2/6
f 56/2/1 60/2/1 62/2/1 61/2/1
f 57/4/1 58/3/1 64/3/1 63/4/1
f 66/2/7 65/1/7 69/1/7 70/2/7
f 66/2/1 70/2/1 72/2/1 71/2/1
f 67/4/1 68/3/1 74/3/1 73/4/1
